<svg width="85" height="82" viewBox="0 0 85 82" fill="none" xmlns="http://www.w3.org/2000/svg">
<g clip-path="url(#clip0)">
<path d="M32.9638 32.9938C32.1761 32.9938 31.5376 33.6059 31.5376 34.361V75.7412C31.5376 76.4962 32.1761 77.1084 32.9638 77.1084C33.7514 77.1084 34.3899 76.4962 34.3899 75.7412V34.361C34.3899 33.6058 33.7514 32.9938 32.9638 32.9938Z" fill="#FFBA08"/>
<path d="M39.4262 32.9938C38.6385 32.9938 38 33.6059 38 34.361V75.7412C38 76.4962 38.6385 77.1084 39.4262 77.1084C40.2138 77.1084 40.8524 76.4962 40.8524 75.7412V34.361C40.8524 33.6058 40.2138 32.9938 39.4262 32.9938Z" fill="#FFBA08"/>
<path d="M45.4262 32.9938C44.6385 32.9938 44 33.6059 44 34.361V75.7412C44 76.4962 44.6385 77.1084 45.4262 77.1084C46.2138 77.1084 46.8524 76.4962 46.8524 75.7412V34.361C46.8524 33.6058 46.2138 32.9938 45.4262 32.9938Z" fill="#FFBA08"/>
<path d="M52.0364 32.9938C51.2487 32.9938 50.6102 33.6059 50.6102 34.361V75.7412C50.6102 76.4962 51.2487 77.1084 52.0364 77.1084C52.824 77.1084 53.4626 76.4962 53.4626 75.7412V34.361C53.4626 33.6058 52.8238 32.9938 52.0364 32.9938Z" fill="#FFBA08"/>
<path d="M69.0258 78.7484H60.2799V30.1683C60.2799 29.4133 59.6413 28.8012 58.8537 28.8012H57.2278V16.3143C57.2278 15.5593 56.5893 14.9472 55.8017 14.9472H53.3543V5.37699C53.3543 4.62195 52.7158 4.00982 51.9281 4.00982H43.9263C43.9263 4.00982 43.2877 4.00982 42.5001 4.00982C41.0739 4.00982 41.0739 6.65247 41.0739 4.00982H33.0721C32.2844 4.00982 31.6459 4.62195 31.6459 5.37699V14.9472H29.1986C28.4109 14.9472 27.7724 15.5593 27.7724 16.3143V28.8012H26.1465C25.3589 28.8012 24.7203 29.4133 24.7203 30.1683V78.7484H15.9744C15.1868 78.7484 14.5482 79.3605 14.5482 80.1156C14.5482 80.8706 15.1868 81.4828 15.9744 81.4828H69.0258C69.8134 81.4828 70.452 80.8706 70.452 80.1156C70.452 79.3605 69.8132 78.7484 69.0258 78.7484ZM34.4983 6.74416H50.502V14.9472H49.1663V9.96393C49.1663 9.20889 48.5277 8.59676 47.7401 8.59676C46.9525 8.59676 46.3139 9.20889 46.3139 9.96393V14.9472H43.9263V9.96393C43.9263 9.20889 43.2877 8.59676 42.5001 8.59676C41.7125 8.59676 41.0739 9.20889 41.0739 9.96393V14.9472H38.6865V9.96393C38.6865 9.20889 38.0479 8.59676 37.2603 8.59676C36.4727 8.59676 35.8341 9.20889 35.8341 9.96393V14.9472H34.4985L34.4983 6.74416ZM30.6247 17.6815H54.3755V28.8012H51.7861V19.8385C51.7861 19.0835 51.1475 18.4714 50.3599 18.4714C49.5723 18.4714 48.9337 19.0835 48.9337 19.8385V28.8012H46.5461V19.8385C46.5461 19.0835 45.9075 18.4714 45.1199 18.4714C44.3323 18.4714 43.6937 19.0835 43.6937 19.8385V28.8012H41.3063V19.8385C41.3063 19.0835 40.6677 18.4714 39.8801 18.4714C39.0925 18.4714 38.4539 19.0835 38.4539 19.8385V28.8012H36.0665V19.8385C36.0665 19.0835 35.4279 18.4714 34.6403 18.4714C33.8527 18.4714 33.2141 19.0835 33.2141 19.8385V28.8012H30.6247V17.6815ZM27.5727 78.7484V31.5355H57.4275V78.7484H27.5727Z" fill="#FFBA08"/>
</g>
<defs>
<clipPath id="clip0">
<rect width="85" height="81.4828" fill="white"/>
</clipPath>
</defs>
</svg>
