<svg width="85" height="82" viewBox="0 0 85 82" fill="none" xmlns="http://www.w3.org/2000/svg">
<g clip-path="url(#clip0)">
<path d="M61.9377 18.1231L62.0198 18.728L61.0741 18.9157L60.9483 20.2044H62.081L63.5879 20.0653L64.3657 19.1788L63.5389 18.8705L63.0862 18.3711L62.4062 17.3154L62.081 15.8223L60.8032 16.072L60.4448 16.5982V17.1914L61.0601 17.5952L61.9377 18.1231Z" fill="#FFBA08"/>
<path d="M60.8486 18.6191L60.9168 17.8114L60.1669 17.5014L59.118 17.7343L58.3401 18.9308V19.7067H59.2474L60.8486 18.6191Z" fill="#FFBA08"/>
<path d="M39.2599 22.0494L39.0292 22.6191H37.9122V23.1721H38.1779C38.1779 23.1721 38.1936 23.2894 38.2163 23.4436L38.9016 23.3883L39.3299 23.1336L39.4417 22.6191L39.9959 22.5739L40.2144 22.1415L39.7057 22.041L39.2599 22.0494Z" fill="#FFBA08"/>
<path d="M36.3809 23.0531L36.3372 23.5944L37.1465 23.529L37.2304 22.9861L36.7445 22.6191L36.3809 23.0531Z" fill="#FFBA08"/>
<path d="M84.9895 40.3199C84.9773 39.1285 84.9143 37.9454 84.7972 36.7808C84.4039 32.8981 83.4355 29.1763 81.9846 25.6874C81.8762 25.4276 81.7766 25.1646 81.6612 24.9082C79.7278 20.5295 77.0131 16.5429 73.69 13.1026C73.4715 12.878 73.2495 12.6568 73.0275 12.439C72.3999 11.814 71.7549 11.204 71.0871 10.6192C63.5319 4.02512 53.498 0 42.4991 0C31.4076 0 21.302 4.09718 13.7259 10.7918C11.9603 12.3519 10.3381 14.0544 8.86622 15.8776C3.31434 22.7615 0 31.3849 0 40.7405C0 63.2072 19.0662 81.4828 42.5009 81.4828C58.9852 81.4828 73.2967 72.4338 80.3414 59.2491C81.8482 56.4305 83.0212 53.4259 83.8113 50.2772C84.0123 49.4778 84.1854 48.6752 84.3357 47.8624C84.764 45.5482 84.9983 43.1687 84.9983 40.7405C85 40.5998 84.9913 40.4607 84.9895 40.3199ZM76.9903 24.0368L77.2368 23.772C77.5602 24.3736 77.8626 24.9853 78.1511 25.6053L77.749 25.5902L76.9903 25.6907V24.0368ZM70.8494 16.9283L70.8564 15.1085C71.5241 15.7871 72.1674 16.4859 72.7827 17.2098L72.0171 18.3024L69.3408 18.279L69.173 17.7444L70.8494 16.9283ZM79.6981 30.3962H76.5883L74.6934 29.0439L72.6988 29.2299V30.3962H72.0678L71.386 29.9304L67.9318 29.0908V26.9459L63.5547 27.2726L62.1982 27.9714H60.4606L59.6093 27.8893L57.4993 29.0121V31.1252L53.1868 34.108L53.5452 35.3815H54.4192L54.1902 36.5948L53.5749 36.8109L53.5417 39.9814L57.2686 44.0501H58.8908L58.9887 43.8021H61.9045L62.7453 43.0564H64.399L65.3062 43.9278L67.771 44.1725L67.4441 47.3145L70.1798 51.9445L68.7394 54.5838L68.8373 55.8272L69.9718 56.9114V59.9009L71.4612 61.8213V64.3048H72.7478C65.5877 72.7321 54.6902 78.1296 42.4974 78.1296C20.9926 78.1313 3.49614 61.3571 3.49614 40.7405C3.49614 35.5508 4.60792 30.604 6.60946 26.108V24.9417L8.00442 23.3179C8.48864 22.4415 9.00781 21.5869 9.56195 20.754L9.62488 21.4327L8.00617 23.3179C7.50447 24.2261 7.03599 25.1545 6.61121 26.108V28.2362L8.23167 28.9836V31.9412L9.78571 34.4833L11.0496 34.6693L11.2121 33.798L9.72103 31.5927L9.4291 29.4494H10.3031L10.672 31.6547L12.8274 34.6693L12.2715 35.6429L13.642 37.6522L17.0455 38.4599V37.932L18.4072 38.118L18.2778 39.0497L19.3477 39.2374L20.9996 39.6697L23.3333 42.2185L26.3137 42.4347L26.6057 44.7657L24.5657 46.1331L24.4695 48.2143L24.1776 49.4879L27.1283 53.0287L27.3538 54.242C27.3538 54.242 28.4236 54.5201 28.5548 54.5201C28.6841 54.5201 30.9531 56.1674 30.9531 56.1674V62.567L31.7625 62.7849L31.2118 65.7375L32.5736 67.4786L32.3218 70.4045L34.1206 73.4359L36.4298 75.3697L38.7513 75.4099L38.9785 74.6943L37.2724 73.3169L37.3703 72.6332L37.6762 71.7953L37.7409 70.9407L36.5871 70.9072L36.005 70.2067L36.963 69.3236L37.0923 68.6567L36.0225 68.3634L36.0854 67.7434L37.6098 67.5222L39.9277 66.4547L40.7056 65.0873L43.1372 62.1045L42.5848 59.7719L43.3312 58.5302L45.567 58.5955L47.0721 57.4527L47.558 52.9516L49.2275 50.919L49.5194 49.6136L47.9968 49.146L46.9917 47.5658L43.5567 47.5323L40.8332 46.5369L40.7039 44.6752L39.7949 43.1519L37.3318 43.1167L35.9089 40.9751L34.645 40.3836L34.5804 41.0371L32.2799 41.1679L31.4373 40.0434L29.0372 39.5759L27.0602 41.7661L23.9486 41.26L23.7231 37.8985L21.4523 37.5265L22.3631 35.8776L22.1026 34.9308L19.1187 36.8428L17.2412 36.6233L16.5717 35.2173L16.9808 33.7678L18.0156 31.9396L20.3983 30.7833L24.9992 30.7816L24.9869 32.1272L26.6406 32.8646L26.5095 30.5655L27.7017 29.4159L30.107 27.901L30.2714 26.8353L32.6697 24.4423L35.2202 23.0883L34.9947 22.9107L36.7217 21.3523L37.3545 21.5131L37.6447 21.8617L38.3003 21.1646L38.4611 21.0959L37.7426 20.9987L37.0137 20.7657V20.0954L37.4 19.7921H38.2513L38.6411 19.9564L38.9785 20.6099L39.3911 20.5496V20.4926L39.5099 20.5311L40.7056 20.3552L40.8752 19.7955L41.5569 19.9597V20.5663L40.9241 20.9836H40.9259L41.0185 21.6489L43.1844 22.289C43.1844 22.289 43.1861 22.2974 43.1896 22.3141L43.6878 22.2739L43.721 21.374L42.0044 20.625L41.9065 20.1926L43.3312 19.7268L43.3941 18.4197L41.9048 17.55L41.8069 15.3464L39.7651 16.3083H39.0205L39.2162 14.6309L36.4368 14.0025L35.2866 14.8353V17.3757L33.2186 18.0041L32.39 19.6598L31.4915 19.7988V17.6807L29.5477 17.4226L28.5757 16.816L28.1842 15.4436L31.6611 13.493L33.362 12.997L33.5333 14.093L34.4807 14.046L34.5541 13.4947L35.5453 13.359L35.5628 13.1663L35.1362 12.997L35.0384 12.4139L36.2568 12.315L36.9927 11.581L37.0329 11.5274L37.0416 11.5308L37.2654 11.3096L39.8263 10.9995L40.9591 11.9212L37.9891 13.4377L41.7684 14.2924L42.2579 13.0808H43.9098L44.4937 12.0251L43.326 11.7452V10.4097L39.6638 8.8546L37.136 9.13445L35.7096 9.84999L35.8075 11.5894L34.3164 11.3716L34.0874 10.4097L35.5156 9.16629L32.9232 9.04228L32.1785 9.25845L31.8551 10.0963L32.827 10.2538L32.633 11.1856L30.9811 11.2794L30.7224 11.8994L28.3258 11.9631C28.3258 11.9631 28.2593 10.6594 28.1632 10.6594C28.067 10.6594 30.0424 10.6275 30.0424 10.6275L31.4705 9.29029L30.6909 8.9166L29.6543 9.88183L27.9342 9.78799L26.8976 8.42058H24.6933L22.3928 10.0678H24.501L24.6933 10.6594L24.1461 11.147L26.4798 11.209L26.8364 12.0167L24.209 11.9229L24.0814 11.3012L22.4295 10.9593L21.5537 10.4935L19.5871 10.5086C26.0253 6.01255 33.9423 3.35148 42.4991 3.35148C52.3617 3.35148 61.3731 6.88561 68.2482 12.692L67.785 13.4863L65.9862 14.1617L65.2276 14.9509L65.4024 15.8709L66.3306 15.9949L66.89 17.3355L68.4912 16.7172L68.7552 18.5102H68.2727L66.9582 18.3242L65.5003 18.5588L64.0896 20.4691L62.0723 20.7724L61.7804 22.4281L62.6317 22.6208L62.3852 23.6849L60.3819 23.2995L58.5447 23.6849L58.1549 24.6652L58.473 26.723L59.5516 27.2073L61.3608 27.1972L62.5827 27.0917L62.9551 26.1599L64.864 23.7821L66.1208 24.0284L67.3585 22.9559L67.5892 23.7938L70.6343 25.7628L70.262 26.2421L68.8898 26.1717L69.4177 26.8889L70.262 27.0665L71.2514 26.671L71.2304 25.5282L71.6692 25.317L71.3161 24.9584L69.2848 23.8726L68.7499 22.4298H70.4386L70.9787 22.9425L72.4331 24.144L72.4943 25.5969L74.0011 27.1352L74.5623 25.0271L75.6059 24.4809L75.8016 26.2052L76.8208 27.2777L78.8538 27.2441C79.2471 28.2144 79.6002 29.2014 79.9096 30.2085L79.6981 30.3962ZM80.3309 32.2831L80.4533 32.1457C80.504 32.3568 80.5581 32.568 80.6071 32.7825L80.3309 32.2831Z" fill="#FFBA08"/>
<path d="M6.61121 24.9417V26.108C7.03599 25.1562 7.50447 24.2278 8.00617 23.3179L6.61121 24.9417Z" fill="#FFBA08"/>
</g>
<defs>
<clipPath id="clip0">
<rect width="85" height="81.4828" fill="white"/>
</clipPath>
</defs>
</svg>
