<svg width="85" height="82" viewBox="0 0 85 82" fill="none" xmlns="http://www.w3.org/2000/svg">
<g clip-path="url(#clip0)">
<path d="M80.1756 62.066V58.8372C80.1756 55.8956 77.7568 53.4917 74.7263 53.3406V27.0126H78.0784C79.2364 27.0126 80.1756 26.1126 80.1756 25.0021V16.3558C80.1756 15.4119 79.4905 14.595 78.5289 14.3922L42.9506 6.89053C42.6534 6.82787 42.3462 6.82787 42.0494 6.89053L6.47105 14.3926C5.50947 14.5953 4.82437 15.4122 4.82437 16.3561V25.0021C4.82437 26.1126 5.76358 27.0126 6.92161 27.0126H10.2737V53.341C7.24319 53.4917 4.82437 55.8956 4.82437 58.8376V62.0664C2.08571 62.5392 0 64.8355 0 67.5948V72.6287C0 73.7391 0.939217 74.6391 2.09725 74.6391H6.92161H78.0784H82.9027C84.0608 74.6391 85 73.7391 85 72.6287V67.5948C85 64.8355 82.9139 62.5392 80.1756 62.066ZM9.01886 58.8372C9.01886 58.0156 9.71619 57.3471 10.5733 57.3471H74.4267C75.2838 57.3471 75.9811 58.0156 75.9811 58.8372V61.9719H9.01886V58.8372ZM20.4384 53.3262H14.4682V27.5986H20.4384V53.3262ZM43.6692 27.0126V53.3262H41.3311V27.0126H43.6692ZM53.8342 53.3262H47.8637V27.5986H53.8342V53.3262ZM70.5318 53.3262H64.5616V27.5986H70.5318V53.3262ZM37.1363 27.5986V53.3262H31.1658V27.5986H37.1363ZM4.19449 67.5948C4.19449 66.7115 4.94426 65.9931 5.8653 65.9931H6.92126H9.01851H75.9808H78.078H79.134C80.0554 65.9931 80.8048 66.7119 80.8048 67.5948V70.6182H75.9804H9.01886H4.19449V67.5948ZM60.3671 53.3262H58.0287V27.0126H60.3671V53.3262ZM9.01886 17.9722L42.5 10.9125L75.9811 17.9722V22.9913H9.01886V17.9722ZM26.9713 27.0126V53.3262H24.6329V27.0126H26.9713Z" fill="#FFBA08"/>
</g>
<defs>
<clipPath id="clip0">
<rect width="85" height="81.4828" fill="white"/>
</clipPath>
</defs>
</svg>
