<svg width="85" height="82" viewBox="0 0 85 82" fill="none" xmlns="http://www.w3.org/2000/svg">
<path d="M81.7033 75.0934H36.6049C39.0502 67.7635 40.4216 58.2813 40.4216 48.3676C40.4216 26.3807 26.2201 8.85857 25.6156 8.12358C25.0719 7.46239 24.2422 7.07665 23.3641 7.07665C22.4861 7.07665 21.6564 7.46239 21.1126 8.12358C20.5082 8.85857 6.3066 26.3809 6.3066 48.3676C6.3066 58.2813 7.67776 67.7635 10.1233 75.0934H2.86682C1.28359 75.0934 0 76.3238 0 77.8415C0 79.3593 1.28359 80.5897 2.86682 80.5897H81.7033C83.2865 80.5897 84.5701 79.3593 84.5701 77.8415C84.5701 76.3238 83.2863 75.0934 81.7033 75.0934ZM30.5499 75.0934H26.2309V19.2878C30.0786 26.0657 34.688 36.6332 34.688 48.3676C34.688 58.5474 33.1909 68.1511 30.5499 75.0934ZM12.0405 48.3676C12.0405 36.6327 16.6503 26.0651 20.4976 19.2878V75.0934H16.1786C13.5376 68.1511 12.0405 58.5474 12.0405 48.3676Z" fill="#FFBA08"/>
<path d="M76.2585 22.0538C76.2585 15.0063 70.2776 9.27285 62.9258 9.27285C55.574 9.27285 49.5931 15.0063 49.5931 22.0538C49.5931 29.1014 55.574 34.8348 62.9258 34.8348C70.2776 34.8348 76.2585 29.1014 76.2585 22.0538ZM62.9258 29.3387C58.7356 29.3387 55.3265 26.0706 55.3265 22.0538C55.3265 18.037 58.7356 14.769 62.9258 14.769C67.116 14.769 70.5251 18.037 70.5251 22.0538C70.5251 26.0706 67.116 29.3387 62.9258 29.3387Z" fill="#FFBA08"/>
<path d="M62.9257 8.66895C64.509 8.66895 65.7925 7.43848 65.7925 5.92076V3.64062C65.7925 2.1229 64.509 0.892426 62.9257 0.892426C61.3425 0.892426 60.0589 2.1229 60.0589 3.64062V5.92076C60.0589 7.43848 61.3425 8.66895 62.9257 8.66895Z" fill="#FFBA08"/>
<path d="M60.0589 38.1863V40.4665C60.0589 41.9842 61.3425 43.2147 62.9257 43.2147C64.509 43.2147 65.7925 41.9842 65.7925 40.4665V38.1863C65.7925 36.6686 64.509 35.4381 62.9257 35.4381C61.3425 35.4384 60.0589 36.6689 60.0589 38.1863Z" fill="#FFBA08"/>
<path d="M76.8878 22.0538C76.8878 23.5716 78.1714 24.802 79.7546 24.802H82.1332C83.7164 24.802 85 23.5716 85 22.0538C85 20.5361 83.7164 19.3057 82.1332 19.3057H79.7546C78.1716 19.3057 76.8878 20.5364 76.8878 22.0538Z" fill="#FFBA08"/>
<path d="M43.7183 24.802H46.0969C47.6801 24.802 48.9637 23.5716 48.9637 22.0538C48.9637 20.5361 47.6801 19.3057 46.0969 19.3057H43.7183C42.1351 19.3057 40.8515 20.5361 40.8515 22.0538C40.8515 23.5716 42.1351 24.802 43.7183 24.802Z" fill="#FFBA08"/>
<path d="M74.8255 13.3947C75.5593 13.3947 76.2928 13.1264 76.8526 12.5898L78.5345 10.9774C79.6541 9.90413 79.6541 8.16391 78.5345 7.09092C77.4147 6.01793 75.5999 6.01793 74.4803 7.09092L72.7983 8.70329C71.6787 9.77656 71.6787 11.5168 72.7983 12.5898C73.3581 13.1264 74.0917 13.3947 74.8255 13.3947Z" fill="#FFBA08"/>
<path d="M48.9989 31.5179L47.317 33.1303C46.1974 34.2036 46.1974 35.9438 47.317 37.0168C47.8768 37.5531 48.6103 37.8217 49.3441 37.8217C50.0779 37.8217 50.8114 37.5534 51.3712 37.0168L53.0532 35.4044C54.1728 34.3311 54.1728 32.5909 53.0532 31.5179C51.9336 30.4449 50.1188 30.4449 48.9989 31.5179Z" fill="#FFBA08"/>
<path d="M74.4803 37.0168C75.0401 37.5531 75.7736 37.8217 76.5074 37.8217C77.2412 37.8217 77.9747 37.5534 78.5345 37.0168C79.6541 35.9435 79.6541 34.2033 78.5345 33.1303L76.8526 31.5179C75.7327 30.4449 73.9179 30.4449 72.7983 31.5179C71.6787 32.5912 71.6787 34.3314 72.7983 35.4044L74.4803 37.0168Z" fill="#FFBA08"/>
<path d="M48.9989 12.59C49.5587 13.1264 50.2923 13.395 51.0261 13.395C51.7599 13.395 52.4934 13.1267 53.0532 12.59C54.1728 11.5168 54.1728 9.77656 53.0532 8.70357L51.3712 7.09119C50.2513 6.0182 48.4366 6.0182 47.317 7.09119C46.1974 8.16446 46.1974 9.90468 47.317 10.9777L48.9989 12.59Z" fill="#FFBA08"/>
</svg>
